<svg width="464" height="112" viewBox="0 0 464 112" fill="none" xmlns="http://www.w3.org/2000/svg">
<path d="M70.1748 69.16H97.0548V85H49.6548V0.759997H70.1748V69.16ZM169.962 50.44C169.962 52.36 169.842 54.36 169.602 56.44H123.162C123.482 60.6 124.802 63.8 127.122 66.04C129.522 68.2 132.442 69.28 135.882 69.28C141.002 69.28 144.562 67.12 146.562 62.8H168.402C167.282 67.2 165.242 71.16 162.282 74.68C159.402 78.2 155.762 80.96 151.362 82.96C146.962 84.96 142.042 85.96 136.602 85.96C130.042 85.96 124.202 84.56 119.082 81.76C113.962 78.96 109.962 74.96 107.082 69.76C104.202 64.56 102.762 58.48 102.762 51.52C102.762 44.56 104.162 38.48 106.962 33.28C109.842 28.08 113.842 24.08 118.962 21.28C124.082 18.48 129.962 17.08 136.602 17.08C143.082 17.08 148.842 18.44 153.882 21.16C158.922 23.88 162.842 27.76 165.642 32.8C168.522 37.84 169.962 43.72 169.962 50.44ZM148.962 45.04C148.962 41.52 147.762 38.72 145.362 36.64C142.962 34.56 139.962 33.52 136.362 33.52C132.922 33.52 130.002 34.52 127.602 36.52C125.282 38.52 123.842 41.36 123.282 45.04H148.962ZM218.108 67.6V85H207.668C200.228 85 194.428 83.2 190.268 79.6C186.108 75.92 184.028 69.96 184.028 61.72V35.08H175.868V18.04H184.028V1.72H204.548V18.04H217.988V35.08H204.548V61.96C204.548 63.96 205.028 65.4 205.988 66.28C206.948 67.16 208.548 67.6 210.788 67.6H218.108ZM250.058 29.2C252.458 25.52 255.458 22.64 259.058 20.56C262.658 18.4 266.658 17.32 271.058 17.32V39.04H265.418C260.298 39.04 256.458 40.16 253.898 42.4C251.338 44.56 250.058 48.4 250.058 53.92V85H229.538V18.04H250.058V29.2ZM276.786 51.4C276.786 44.52 278.066 38.48 280.626 33.28C283.266 28.08 286.826 24.08 291.306 21.28C295.786 18.48 300.786 17.08 306.306 17.08C311.026 17.08 315.146 18.04 318.666 19.96C322.266 21.88 325.026 24.4 326.946 27.52V18.04H347.466V85H326.946V75.52C324.946 78.64 322.146 81.16 318.546 83.08C315.026 85 310.906 85.96 306.186 85.96C300.746 85.96 295.786 84.56 291.306 81.76C286.826 78.88 283.266 74.84 280.626 69.64C278.066 64.36 276.786 58.28 276.786 51.4ZM326.946 51.52C326.946 46.4 325.506 42.36 322.626 39.4C319.826 36.44 316.386 34.96 312.306 34.96C308.226 34.96 304.746 36.44 301.866 39.4C299.066 42.28 297.666 46.28 297.666 51.4C297.666 56.52 299.066 60.6 301.866 63.64C304.746 66.6 308.226 68.08 312.306 68.08C316.386 68.08 319.826 66.6 322.626 63.64C325.506 60.68 326.946 56.64 326.946 51.52ZM389.551 85.96C383.711 85.96 378.511 84.96 373.951 82.96C369.391 80.96 365.791 78.24 363.151 74.8C360.511 71.28 359.031 67.36 358.711 63.04H378.991C379.231 65.36 380.311 67.24 382.231 68.68C384.151 70.12 386.511 70.84 389.311 70.84C391.871 70.84 393.831 70.36 395.191 69.4C396.631 68.36 397.351 67.04 397.351 65.44C397.351 63.52 396.351 62.12 394.351 61.24C392.351 60.28 389.111 59.24 384.631 58.12C379.831 57 375.831 55.84 372.631 54.64C369.431 53.36 366.671 51.4 364.351 48.76C362.031 46.04 360.871 42.4 360.871 37.84C360.871 34 361.911 30.52 363.991 27.4C366.151 24.2 369.271 21.68 373.351 19.84C377.511 18 382.431 17.08 388.111 17.08C396.511 17.08 403.111 19.16 407.911 23.32C412.791 27.48 415.591 33 416.311 39.88H397.351C397.031 37.56 395.991 35.72 394.231 34.36C392.551 33 390.311 32.32 387.511 32.32C385.111 32.32 383.271 32.8 381.991 33.76C380.711 34.64 380.071 35.88 380.071 37.48C380.071 39.4 381.071 40.84 383.071 41.8C385.151 42.76 388.351 43.72 392.671 44.68C397.631 45.96 401.671 47.24 404.791 48.52C407.911 49.72 410.631 51.72 412.951 54.52C415.351 57.24 416.591 60.92 416.671 65.56C416.671 69.48 415.551 73 413.311 76.12C411.151 79.16 407.991 81.56 403.831 83.32C399.751 85.08 394.991 85.96 389.551 85.96Z" fill="#414141"/>
<path d="M91.1992 97.3408C91.2988 97.2412 91.3984 97.0977 91.498 96.9102C91.6035 96.7168 91.6973 96.5029 91.7793 96.2686C91.8672 96.0283 91.9375 95.7793 91.9902 95.5215C92.043 95.2578 92.0693 95.0059 92.0693 94.7656C92.0693 94.5547 92.04 94.3555 91.9814 94.168C91.9229 93.9746 91.8232 93.8076 91.6826 93.667C91.542 93.5205 91.3545 93.4062 91.1201 93.3242C90.8916 93.2363 90.6074 93.1924 90.2676 93.1924C89.6348 93.1924 89.0107 93.3213 88.3955 93.5791C87.7803 93.8311 87.1973 94.1914 86.6465 94.6602C86.1016 95.123 85.6006 95.6855 85.1436 96.3477C84.6865 97.0098 84.3027 97.748 83.9922 98.5625C83.7578 99.1719 83.5762 99.7842 83.4473 100.399C83.3242 101.009 83.2627 101.586 83.2627 102.131C83.2627 102.951 83.4092 103.555 83.7021 103.941C84.001 104.322 84.4609 104.513 85.082 104.513C85.9141 104.513 86.7402 104.158 87.5605 103.449C88.3867 102.734 89.2217 101.636 90.0654 100.153L90.1357 100.039H91.2959L90.7246 101.647C90.3906 102.603 90.0508 103.481 89.7051 104.284C89.3594 105.087 89.0049 105.825 88.6416 106.499C89.1572 106.446 89.623 106.385 90.0391 106.314C90.4609 106.244 90.8506 106.153 91.208 106.042C91.5654 105.925 91.8965 105.778 92.2012 105.603C92.5059 105.427 92.7988 105.204 93.0801 104.935C93.3672 104.659 93.6455 104.331 93.915 103.95C94.1904 103.569 94.4775 103.118 94.7764 102.597L95.2246 101.788L95.4619 101.955L95.0049 102.764C94.7119 103.285 94.4277 103.739 94.1523 104.126C93.877 104.513 93.5928 104.85 93.2998 105.137C93.0127 105.418 92.708 105.655 92.3857 105.849C92.0693 106.042 91.7148 106.203 91.3223 106.332C90.9355 106.461 90.5049 106.566 90.0303 106.648C89.5615 106.73 89.0312 106.801 88.4395 106.859C87.543 108.471 86.5879 109.666 85.5742 110.445C84.5664 111.23 83.4678 111.623 82.2783 111.623C81.4756 111.623 80.8779 111.459 80.4854 111.131C80.0986 110.803 79.9053 110.363 79.9053 109.812C79.9053 109.42 80.0049 109.074 80.2041 108.775C80.4033 108.482 80.6787 108.228 81.0303 108.011C81.3818 107.794 81.792 107.609 82.2607 107.457C82.7354 107.311 83.2422 107.185 83.7812 107.079C84.3262 106.979 84.8916 106.895 85.4775 106.824C86.0693 106.754 86.6553 106.689 87.2354 106.631C87.4814 106.121 87.7275 105.567 87.9736 104.97C88.2197 104.366 88.4834 103.701 88.7646 102.975L88.9932 102.377C88.7588 102.688 88.4951 102.998 88.2021 103.309C87.915 103.613 87.5986 103.889 87.2529 104.135C86.9131 104.375 86.5469 104.571 86.1543 104.724C85.7617 104.87 85.3457 104.943 84.9062 104.943C84.4609 104.943 84.0537 104.861 83.6846 104.697C83.3213 104.527 83.0107 104.287 82.7529 103.977C82.4951 103.66 82.293 103.282 82.1465 102.843C82.0059 102.397 81.9355 101.902 81.9355 101.357C81.9355 100.965 81.9736 100.546 82.0498 100.101C82.126 99.6553 82.2402 99.2012 82.3926 98.7383C82.6914 97.8652 83.0986 97.0684 83.6143 96.3477C84.1357 95.627 84.7305 95.0088 85.3984 94.4932C86.0664 93.9717 86.79 93.5703 87.5693 93.2891C88.3486 93.002 89.1484 92.8584 89.9688 92.8584C90.4492 92.8584 90.8564 92.9111 91.1904 93.0166C91.5303 93.1162 91.8057 93.2568 92.0166 93.4385C92.2275 93.6143 92.3799 93.8223 92.4736 94.0625C92.5732 94.2969 92.623 94.5488 92.623 94.8184C92.623 95.0352 92.5938 95.2578 92.5352 95.4863C92.4824 95.709 92.4062 95.9346 92.3066 96.1631C92.2129 96.3857 92.0957 96.6055 91.9551 96.8223C91.8145 97.0391 91.6621 97.2441 91.498 97.4375L91.1992 97.3408ZM82.3135 111.192C82.7939 111.192 83.2422 111.119 83.6582 110.973C84.0742 110.826 84.4697 110.586 84.8447 110.252C85.2256 109.918 85.5977 109.481 85.9609 108.942C86.3242 108.409 86.6963 107.756 87.0771 106.982C86.1455 107.064 85.2695 107.161 84.4492 107.272C83.6348 107.39 82.9229 107.551 82.3135 107.756C81.7041 107.961 81.2236 108.225 80.8721 108.547C80.5205 108.869 80.3447 109.276 80.3447 109.769C80.3447 110.231 80.5088 110.583 80.8369 110.823C81.165 111.069 81.6572 111.192 82.3135 111.192ZM95.1631 101.894C95.3682 101.108 95.667 100.382 96.0596 99.7139C96.458 99.0459 96.9121 98.4688 97.4219 97.9824C97.9375 97.4902 98.4941 97.1064 99.0918 96.8311C99.6953 96.5557 100.302 96.418 100.911 96.418C101.403 96.418 101.816 96.5029 102.15 96.6729C102.49 96.8369 102.763 97.0596 102.968 97.3408C103.173 97.6221 103.319 97.9473 103.407 98.3164C103.495 98.6855 103.539 99.0723 103.539 99.4766C103.539 99.916 103.495 100.355 103.407 100.795C103.325 101.234 103.217 101.653 103.082 102.052C103 102.304 102.906 102.547 102.801 102.781C102.695 103.016 102.584 103.244 102.467 103.467C102.549 103.66 102.669 103.818 102.827 103.941C102.985 104.059 103.205 104.117 103.486 104.117C103.65 104.117 103.826 104.091 104.014 104.038C104.201 103.985 104.389 103.9 104.576 103.783C104.77 103.66 104.957 103.502 105.139 103.309C105.326 103.115 105.499 102.878 105.657 102.597L106.114 101.788L106.352 101.955L105.895 102.764C105.672 103.156 105.443 103.467 105.209 103.695C104.98 103.918 104.758 104.088 104.541 104.205C104.324 104.322 104.119 104.398 103.926 104.434C103.738 104.463 103.577 104.478 103.442 104.478C103.167 104.478 102.921 104.442 102.704 104.372C102.487 104.296 102.294 104.196 102.124 104.073C101.831 104.542 101.506 104.967 101.148 105.348C100.797 105.729 100.425 106.054 100.032 106.323C99.6396 106.593 99.2324 106.801 98.8105 106.947C98.3945 107.094 97.9785 107.167 97.5625 107.167C97.1465 107.167 96.7715 107.094 96.4375 106.947C96.1094 106.795 95.8311 106.578 95.6025 106.297C95.374 106.016 95.1982 105.673 95.0752 105.269C94.9521 104.858 94.8906 104.398 94.8906 103.889C94.8906 103.566 94.9141 103.238 94.9609 102.904C95.0078 102.564 95.0752 102.228 95.1631 101.894ZM97.6943 106.728C98.0342 106.728 98.377 106.651 98.7227 106.499C99.0742 106.341 99.417 106.118 99.751 105.831C100.091 105.544 100.416 105.198 100.727 104.794C101.043 104.384 101.333 103.93 101.597 103.432C101.526 103.297 101.474 103.159 101.438 103.019C101.409 102.872 101.395 102.723 101.395 102.57C101.395 102.4 101.418 102.233 101.465 102.069C101.512 101.899 101.582 101.744 101.676 101.604C101.775 101.457 101.898 101.325 102.045 101.208C102.197 101.091 102.373 100.997 102.572 100.927C102.66 100.599 102.733 100.259 102.792 99.9072C102.851 99.5498 102.88 99.1982 102.88 98.8525C102.88 98.5713 102.854 98.3047 102.801 98.0527C102.748 97.7949 102.657 97.5723 102.528 97.3848C102.405 97.1973 102.235 97.0479 102.019 96.9365C101.808 96.8252 101.544 96.7695 101.228 96.7695C100.771 96.7695 100.316 96.8926 99.8652 97.1387C99.4199 97.3789 98.9951 97.7217 98.5908 98.167C98.1924 98.6064 97.8291 99.1338 97.501 99.749C97.1729 100.364 96.9004 101.044 96.6836 101.788C96.5371 102.286 96.4229 102.787 96.3408 103.291C96.2646 103.789 96.2266 104.243 96.2266 104.653C96.2266 106.036 96.7158 106.728 97.6943 106.728ZM106.044 101.894C106.249 101.108 106.548 100.382 106.94 99.7139C107.339 99.0459 107.793 98.4688 108.303 97.9824C108.818 97.4902 109.375 97.1064 109.973 96.8311C110.576 96.5557 111.183 96.418 111.792 96.418C112.284 96.418 112.697 96.5029 113.031 96.6729C113.371 96.8369 113.644 97.0596 113.849 97.3408C114.054 97.6221 114.2 97.9473 114.288 98.3164C114.376 98.6855 114.42 99.0723 114.42 99.4766C114.42 99.916 114.376 100.355 114.288 100.795C114.206 101.234 114.098 101.653 113.963 102.052C113.881 102.304 113.787 102.547 113.682 102.781C113.576 103.016 113.465 103.244 113.348 103.467C113.43 103.66 113.55 103.818 113.708 103.941C113.866 104.059 114.086 104.117 114.367 104.117C114.531 104.117 114.707 104.091 114.895 104.038C115.082 103.985 115.27 103.9 115.457 103.783C115.65 103.66 115.838 103.502 116.02 103.309C116.207 103.115 116.38 102.878 116.538 102.597L116.995 101.788L117.232 101.955L116.775 102.764C116.553 103.156 116.324 103.467 116.09 103.695C115.861 103.918 115.639 104.088 115.422 104.205C115.205 104.322 115 104.398 114.807 104.434C114.619 104.463 114.458 104.478 114.323 104.478C114.048 104.478 113.802 104.442 113.585 104.372C113.368 104.296 113.175 104.196 113.005 104.073C112.712 104.542 112.387 104.967 112.029 105.348C111.678 105.729 111.306 106.054 110.913 106.323C110.521 106.593 110.113 106.801 109.691 106.947C109.275 107.094 108.859 107.167 108.443 107.167C108.027 107.167 107.652 107.094 107.318 106.947C106.99 106.795 106.712 106.578 106.483 106.297C106.255 106.016 106.079 105.673 105.956 105.269C105.833 104.858 105.771 104.398 105.771 103.889C105.771 103.566 105.795 103.238 105.842 102.904C105.889 102.564 105.956 102.228 106.044 101.894ZM108.575 106.728C108.915 106.728 109.258 106.651 109.604 106.499C109.955 106.341 110.298 106.118 110.632 105.831C110.972 105.544 111.297 105.198 111.607 104.794C111.924 104.384 112.214 103.93 112.478 103.432C112.407 103.297 112.354 103.159 112.319 103.019C112.29 102.872 112.275 102.723 112.275 102.57C112.275 102.4 112.299 102.233 112.346 102.069C112.393 101.899 112.463 101.744 112.557 101.604C112.656 101.457 112.779 101.325 112.926 101.208C113.078 101.091 113.254 100.997 113.453 100.927C113.541 100.599 113.614 100.259 113.673 99.9072C113.731 99.5498 113.761 99.1982 113.761 98.8525C113.761 98.5713 113.734 98.3047 113.682 98.0527C113.629 97.7949 113.538 97.5723 113.409 97.3848C113.286 97.1973 113.116 97.0479 112.899 96.9365C112.688 96.8252 112.425 96.7695 112.108 96.7695C111.651 96.7695 111.197 96.8926 110.746 97.1387C110.301 97.3789 109.876 97.7217 109.472 98.167C109.073 98.6064 108.71 99.1338 108.382 99.749C108.054 100.364 107.781 101.044 107.564 101.788C107.418 102.286 107.304 102.787 107.222 103.291C107.146 103.789 107.107 104.243 107.107 104.653C107.107 106.036 107.597 106.728 108.575 106.728ZM117.725 111.632C117.156 111.632 116.685 111.556 116.31 111.403C115.929 111.251 115.627 111.011 115.404 110.683C115.287 110.524 115.199 110.354 115.141 110.173C115.076 109.997 115.044 109.821 115.044 109.646C115.044 109.382 115.114 109.174 115.255 109.021C115.39 108.869 115.577 108.793 115.817 108.793C116.022 108.793 116.184 108.849 116.301 108.96C116.418 109.071 116.477 109.227 116.477 109.426C116.477 109.613 116.427 109.766 116.327 109.883C116.228 110 116.102 110.059 115.949 110.059C115.885 110.059 115.835 110.05 115.8 110.032C115.759 110.015 115.715 110.006 115.668 110.006C115.639 110.006 115.618 110.012 115.606 110.023C115.595 110.041 115.589 110.073 115.589 110.12C115.589 110.284 115.642 110.434 115.747 110.568C115.853 110.709 115.999 110.829 116.187 110.929C116.374 111.034 116.597 111.113 116.854 111.166C117.112 111.225 117.391 111.254 117.689 111.254C118.117 111.254 118.51 111.192 118.867 111.069C119.225 110.946 119.55 110.753 119.843 110.489C120.142 110.231 120.411 109.9 120.651 109.496C120.897 109.098 121.123 108.617 121.328 108.055L122.998 103.432C122.248 104.68 121.504 105.614 120.766 106.235C120.027 106.856 119.277 107.167 118.516 107.167C118.152 107.167 117.842 107.103 117.584 106.974C117.332 106.839 117.124 106.654 116.96 106.42C116.796 106.18 116.676 105.901 116.6 105.585C116.523 105.263 116.485 104.911 116.485 104.53C116.485 104.12 116.526 103.689 116.608 103.238C116.69 102.781 116.808 102.324 116.96 101.867C117.171 101.234 117.423 100.66 117.716 100.145C118.009 99.623 118.325 99.1602 118.665 98.7559C119.011 98.3516 119.371 98.0029 119.746 97.71C120.127 97.417 120.505 97.1768 120.88 96.9893C121.261 96.7959 121.633 96.6523 121.996 96.5586C122.365 96.4648 122.711 96.418 123.033 96.418C123.367 96.418 123.646 96.4678 123.868 96.5674C124.097 96.6611 124.278 96.7988 124.413 96.9805C124.548 97.1621 124.645 97.3818 124.703 97.6396C124.762 97.8975 124.791 98.1846 124.791 98.501L125.494 96.585H126.795L122.646 107.984C122.213 109.174 121.577 110.079 120.739 110.7C119.901 111.321 118.896 111.632 117.725 111.632ZM118.832 106.728C119.148 106.728 119.471 106.646 119.799 106.481C120.127 106.312 120.452 106.083 120.774 105.796C121.103 105.503 121.419 105.163 121.724 104.776C122.028 104.384 122.315 103.968 122.585 103.528C122.86 103.083 123.112 102.626 123.341 102.157C123.569 101.688 123.766 101.229 123.93 100.777C124.1 100.32 124.229 99.8867 124.316 99.4766C124.41 99.0605 124.457 98.6885 124.457 98.3604C124.457 98.0615 124.419 97.8125 124.343 97.6133C124.272 97.4082 124.176 97.2441 124.053 97.1211C123.936 96.9922 123.798 96.9014 123.64 96.8486C123.487 96.7959 123.329 96.7695 123.165 96.7695C122.837 96.7695 122.471 96.8721 122.066 97.0771C121.668 97.2764 121.261 97.584 120.845 98C120.429 98.4102 120.019 98.9316 119.614 99.5645C119.216 100.191 118.85 100.93 118.516 101.779C118.24 102.488 118.032 103.145 117.892 103.748C117.757 104.352 117.689 104.855 117.689 105.26C117.689 105.717 117.78 106.077 117.962 106.341C118.149 106.599 118.439 106.728 118.832 106.728ZM132.473 91.9531H133.782L129.854 102.737C129.771 102.966 129.689 103.2 129.607 103.44C129.525 103.675 129.452 103.909 129.388 104.144C129.329 104.372 129.279 104.595 129.238 104.812C129.203 105.022 129.186 105.219 129.186 105.4C129.186 105.805 129.291 106.127 129.502 106.367C129.719 106.607 130.053 106.728 130.504 106.728C130.896 106.728 131.274 106.643 131.638 106.473C132.007 106.303 132.37 106.048 132.728 105.708C133.091 105.362 133.454 104.932 133.817 104.416C134.181 103.895 134.559 103.288 134.951 102.597L135.408 101.788L135.646 101.955L135.188 102.764C134.761 103.52 134.351 104.176 133.958 104.732C133.571 105.283 133.182 105.74 132.789 106.104C132.402 106.461 132.007 106.728 131.603 106.903C131.198 107.079 130.768 107.167 130.311 107.167C129.953 107.167 129.637 107.111 129.361 107C129.092 106.895 128.866 106.742 128.685 106.543C128.497 106.344 128.356 106.104 128.263 105.822C128.169 105.541 128.122 105.228 128.122 104.882C128.122 104.577 128.157 104.246 128.228 103.889C128.298 103.525 128.406 103.142 128.553 102.737L132.473 91.9531ZM137.298 96.585H138.599L136.357 102.737C136.275 102.966 136.193 103.2 136.111 103.44C136.029 103.675 135.956 103.909 135.892 104.144C135.833 104.372 135.783 104.595 135.742 104.812C135.707 105.022 135.689 105.219 135.689 105.4C135.689 105.805 135.795 106.127 136.006 106.367C136.223 106.607 136.557 106.728 137.008 106.728C137.4 106.728 137.778 106.643 138.142 106.473C138.511 106.303 138.874 106.048 139.231 105.708C139.595 105.362 139.958 104.932 140.321 104.416C140.685 103.895 141.062 103.288 141.455 102.597L141.912 101.788L142.149 101.955L141.692 102.764C141.265 103.52 140.854 104.176 140.462 104.732C140.075 105.283 139.686 105.74 139.293 106.104C138.906 106.461 138.511 106.728 138.106 106.903C137.702 107.079 137.271 107.167 136.814 107.167C136.457 107.167 136.141 107.111 135.865 107C135.596 106.895 135.37 106.742 135.188 106.543C135.001 106.344 134.86 106.104 134.767 105.822C134.673 105.541 134.626 105.228 134.626 104.882C134.626 104.577 134.664 104.243 134.74 103.88C134.811 103.517 134.916 103.136 135.057 102.737L137.298 96.585ZM138.001 94.2822C138.001 94.0771 138.071 93.9014 138.212 93.7549C138.358 93.6084 138.534 93.5352 138.739 93.5352C138.944 93.5352 139.117 93.6084 139.258 93.7549C139.404 93.8955 139.478 94.0684 139.478 94.2734C139.478 94.373 139.457 94.4697 139.416 94.5635C139.381 94.6514 139.328 94.7275 139.258 94.792C139.193 94.8564 139.114 94.9092 139.021 94.9502C138.933 94.9854 138.836 95.0029 138.73 95.0029C138.525 95.0029 138.353 94.9355 138.212 94.8008C138.071 94.6602 138.001 94.4873 138.001 94.2822ZM143.811 96.585H145.111L143.731 100.364C144.124 99.6963 144.502 99.1162 144.865 98.624C145.229 98.126 145.589 97.7158 145.946 97.3936C146.31 97.0654 146.676 96.8223 147.045 96.6641C147.414 96.5 147.804 96.418 148.214 96.418C148.583 96.418 148.905 96.4795 149.181 96.6025C149.456 96.7197 149.688 96.8838 149.875 97.0947C150.062 97.2998 150.203 97.54 150.297 97.8154C150.391 98.0908 150.438 98.3809 150.438 98.6855C150.438 99.0195 150.388 99.3828 150.288 99.7754C150.194 100.168 150.074 100.572 149.928 100.988C149.781 101.404 149.623 101.826 149.453 102.254C149.283 102.676 149.125 103.083 148.979 103.476C148.832 103.868 148.709 104.237 148.609 104.583C148.516 104.923 148.469 105.222 148.469 105.479C148.469 105.837 148.577 106.136 148.794 106.376C149.017 106.61 149.362 106.728 149.831 106.728C150.206 106.728 150.572 106.643 150.93 106.473C151.293 106.297 151.653 106.039 152.011 105.699C152.374 105.354 152.737 104.923 153.101 104.407C153.47 103.886 153.848 103.282 154.234 102.597L154.691 101.788L154.929 101.955L154.472 102.764C154.05 103.502 153.646 104.149 153.259 104.706C152.872 105.257 152.485 105.714 152.099 106.077C151.712 106.44 151.316 106.713 150.912 106.895C150.514 107.076 150.089 107.167 149.638 107.167C149.269 107.167 148.943 107.111 148.662 107C148.387 106.889 148.155 106.736 147.968 106.543C147.78 106.35 147.64 106.127 147.546 105.875C147.452 105.617 147.405 105.345 147.405 105.058C147.405 104.753 147.452 104.413 147.546 104.038C147.646 103.657 147.769 103.262 147.915 102.852C148.062 102.436 148.22 102.017 148.39 101.595C148.56 101.167 148.718 100.754 148.864 100.355C149.011 99.9512 149.131 99.5703 149.225 99.2129C149.324 98.8496 149.374 98.5273 149.374 98.2461C149.374 98.0469 149.348 97.8623 149.295 97.6924C149.242 97.5225 149.157 97.376 149.04 97.2529C148.929 97.1299 148.785 97.0332 148.609 96.9629C148.439 96.8926 148.234 96.8574 147.994 96.8574C147.625 96.8574 147.265 96.9482 146.913 97.1299C146.562 97.3057 146.207 97.5723 145.85 97.9297C145.498 98.2871 145.138 98.7354 144.769 99.2744C144.405 99.8076 144.021 100.432 143.617 101.146L143.16 101.955L141.314 107H140.014L143.811 96.585ZM155.43 111.632C154.861 111.632 154.39 111.556 154.015 111.403C153.634 111.251 153.332 111.011 153.109 110.683C152.992 110.524 152.904 110.354 152.846 110.173C152.781 109.997 152.749 109.821 152.749 109.646C152.749 109.382 152.819 109.174 152.96 109.021C153.095 108.869 153.282 108.793 153.522 108.793C153.728 108.793 153.889 108.849 154.006 108.96C154.123 109.071 154.182 109.227 154.182 109.426C154.182 109.613 154.132 109.766 154.032 109.883C153.933 110 153.807 110.059 153.654 110.059C153.59 110.059 153.54 110.05 153.505 110.032C153.464 110.015 153.42 110.006 153.373 110.006C153.344 110.006 153.323 110.012 153.312 110.023C153.3 110.041 153.294 110.073 153.294 110.12C153.294 110.284 153.347 110.434 153.452 110.568C153.558 110.709 153.704 110.829 153.892 110.929C154.079 111.034 154.302 111.113 154.56 111.166C154.817 111.225 155.096 111.254 155.395 111.254C155.822 111.254 156.215 111.192 156.572 111.069C156.93 110.946 157.255 110.753 157.548 110.489C157.847 110.231 158.116 109.9 158.356 109.496C158.603 109.098 158.828 108.617 159.033 108.055L160.703 103.432C159.953 104.68 159.209 105.614 158.471 106.235C157.732 106.856 156.982 107.167 156.221 107.167C155.857 107.167 155.547 107.103 155.289 106.974C155.037 106.839 154.829 106.654 154.665 106.42C154.501 106.18 154.381 105.901 154.305 105.585C154.229 105.263 154.19 104.911 154.19 104.53C154.19 104.12 154.231 103.689 154.313 103.238C154.396 102.781 154.513 102.324 154.665 101.867C154.876 101.234 155.128 100.66 155.421 100.145C155.714 99.623 156.03 99.1602 156.37 98.7559C156.716 98.3516 157.076 98.0029 157.451 97.71C157.832 97.417 158.21 97.1768 158.585 96.9893C158.966 96.7959 159.338 96.6523 159.701 96.5586C160.07 96.4648 160.416 96.418 160.738 96.418C161.072 96.418 161.351 96.4678 161.573 96.5674C161.802 96.6611 161.983 96.7988 162.118 96.9805C162.253 97.1621 162.35 97.3818 162.408 97.6396C162.467 97.8975 162.496 98.1846 162.496 98.501L163.199 96.585H164.5L160.352 107.984C159.918 109.174 159.282 110.079 158.444 110.7C157.606 111.321 156.602 111.632 155.43 111.632ZM156.537 106.728C156.854 106.728 157.176 106.646 157.504 106.481C157.832 106.312 158.157 106.083 158.479 105.796C158.808 105.503 159.124 105.163 159.429 104.776C159.733 104.384 160.021 103.968 160.29 103.528C160.565 103.083 160.817 102.626 161.046 102.157C161.274 101.688 161.471 101.229 161.635 100.777C161.805 100.32 161.934 99.8867 162.021 99.4766C162.115 99.0605 162.162 98.6885 162.162 98.3604C162.162 98.0615 162.124 97.8125 162.048 97.6133C161.978 97.4082 161.881 97.2441 161.758 97.1211C161.641 96.9922 161.503 96.9014 161.345 96.8486C161.192 96.7959 161.034 96.7695 160.87 96.7695C160.542 96.7695 160.176 96.8721 159.771 97.0771C159.373 97.2764 158.966 97.584 158.55 98C158.134 98.4102 157.724 98.9316 157.319 99.5645C156.921 100.191 156.555 100.93 156.221 101.779C155.945 102.488 155.737 103.145 155.597 103.748C155.462 104.352 155.395 104.855 155.395 105.26C155.395 105.717 155.485 106.077 155.667 106.341C155.854 106.599 156.145 106.728 156.537 106.728ZM175.003 100.188C175.759 98.9287 176.506 97.9854 177.244 97.3584C177.988 96.7314 178.744 96.418 179.512 96.418C179.869 96.418 180.177 96.4854 180.435 96.6201C180.692 96.749 180.903 96.9336 181.067 97.1738C181.231 97.4082 181.352 97.6865 181.428 98.0088C181.504 98.3311 181.542 98.6797 181.542 99.0547C181.542 99.4648 181.501 99.8955 181.419 100.347C181.337 100.798 181.22 101.255 181.067 101.718C180.851 102.351 180.596 102.925 180.303 103.44C180.01 103.956 179.69 104.416 179.345 104.82C179.005 105.225 178.647 105.576 178.272 105.875C177.897 106.168 177.52 106.411 177.139 106.604C176.764 106.792 176.392 106.933 176.022 107.026C175.659 107.12 175.316 107.167 174.994 107.167C174.561 107.167 174.177 107.111 173.843 107C173.515 106.895 173.239 106.742 173.017 106.543C172.794 106.344 172.627 106.104 172.516 105.822C172.398 105.541 172.34 105.228 172.34 104.882C172.34 104.577 172.378 104.243 172.454 103.88C172.524 103.517 172.63 103.136 172.771 102.737L176.69 91.9531H178L175.003 100.188ZM179.23 96.8574C178.914 96.8574 178.589 96.9453 178.255 97.1211C177.921 97.2969 177.587 97.5371 177.253 97.8418C176.925 98.1465 176.6 98.501 176.277 98.9053C175.961 99.3096 175.659 99.7402 175.372 100.197C175.085 100.648 174.821 101.117 174.581 101.604C174.341 102.084 174.133 102.556 173.957 103.019C173.787 103.476 173.652 103.909 173.553 104.319C173.453 104.729 173.403 105.09 173.403 105.4C173.403 105.84 173.521 106.186 173.755 106.438C173.989 106.689 174.355 106.815 174.854 106.815C175.1 106.815 175.401 106.748 175.759 106.613C176.122 106.479 176.509 106.229 176.919 105.866C177.335 105.497 177.763 104.987 178.202 104.337C178.647 103.681 179.078 102.834 179.494 101.797C179.775 101.094 179.986 100.455 180.127 99.8809C180.268 99.3008 180.338 98.7998 180.338 98.3779C180.338 97.8857 180.247 97.5107 180.065 97.2529C179.884 96.9893 179.605 96.8574 179.23 96.8574ZM183.933 101.894C184.138 101.108 184.437 100.382 184.829 99.7139C185.228 99.0459 185.682 98.4688 186.191 97.9824C186.707 97.4902 187.264 97.1064 187.861 96.8311C188.465 96.5557 189.071 96.418 189.681 96.418C190.173 96.418 190.586 96.5029 190.92 96.6729C191.26 96.8369 191.532 97.0596 191.737 97.3408C191.942 97.6221 192.089 97.9473 192.177 98.3164C192.265 98.6855 192.309 99.0723 192.309 99.4766C192.309 99.916 192.265 100.355 192.177 100.795C192.095 101.234 191.986 101.653 191.852 102.052C191.77 102.304 191.676 102.547 191.57 102.781C191.465 103.016 191.354 103.244 191.236 103.467C191.318 103.66 191.438 103.818 191.597 103.941C191.755 104.059 191.975 104.117 192.256 104.117C192.42 104.117 192.596 104.091 192.783 104.038C192.971 103.985 193.158 103.9 193.346 103.783C193.539 103.66 193.727 103.502 193.908 103.309C194.096 103.115 194.269 102.878 194.427 102.597L194.884 101.788L195.121 101.955L194.664 102.764C194.441 103.156 194.213 103.467 193.979 103.695C193.75 103.918 193.527 104.088 193.311 104.205C193.094 104.322 192.889 104.398 192.695 104.434C192.508 104.463 192.347 104.478 192.212 104.478C191.937 104.478 191.69 104.442 191.474 104.372C191.257 104.296 191.063 104.196 190.894 104.073C190.601 104.542 190.275 104.967 189.918 105.348C189.566 105.729 189.194 106.054 188.802 106.323C188.409 106.593 188.002 106.801 187.58 106.947C187.164 107.094 186.748 107.167 186.332 107.167C185.916 107.167 185.541 107.094 185.207 106.947C184.879 106.795 184.601 106.578 184.372 106.297C184.144 106.016 183.968 105.673 183.845 105.269C183.722 104.858 183.66 104.398 183.66 103.889C183.66 103.566 183.684 103.238 183.73 102.904C183.777 102.564 183.845 102.228 183.933 101.894ZM186.464 106.728C186.804 106.728 187.146 106.651 187.492 106.499C187.844 106.341 188.187 106.118 188.521 105.831C188.86 105.544 189.186 105.198 189.496 104.794C189.812 104.384 190.103 103.93 190.366 103.432C190.296 103.297 190.243 103.159 190.208 103.019C190.179 102.872 190.164 102.723 190.164 102.57C190.164 102.4 190.188 102.233 190.234 102.069C190.281 101.899 190.352 101.744 190.445 101.604C190.545 101.457 190.668 101.325 190.814 101.208C190.967 101.091 191.143 100.997 191.342 100.927C191.43 100.599 191.503 100.259 191.562 99.9072C191.62 99.5498 191.649 99.1982 191.649 98.8525C191.649 98.5713 191.623 98.3047 191.57 98.0527C191.518 97.7949 191.427 97.5723 191.298 97.3848C191.175 97.1973 191.005 97.0479 190.788 96.9365C190.577 96.8252 190.313 96.7695 189.997 96.7695C189.54 96.7695 189.086 96.8926 188.635 97.1387C188.189 97.3789 187.765 97.7217 187.36 98.167C186.962 98.6064 186.599 99.1338 186.271 99.749C185.942 100.364 185.67 101.044 185.453 101.788C185.307 102.286 185.192 102.787 185.11 103.291C185.034 103.789 184.996 104.243 184.996 104.653C184.996 106.036 185.485 106.728 186.464 106.728ZM194.813 101.894C195.019 101.108 195.317 100.382 195.71 99.7139C196.108 99.0459 196.562 98.4688 197.072 97.9824C197.588 97.4902 198.145 97.1064 198.742 96.8311C199.346 96.5557 199.952 96.418 200.562 96.418C201.054 96.418 201.467 96.5029 201.801 96.6729C202.141 96.8369 202.413 97.0596 202.618 97.3408C202.823 97.6221 202.97 97.9473 203.058 98.3164C203.146 98.6855 203.189 99.0723 203.189 99.4766C203.189 99.916 203.146 100.355 203.058 100.795C202.976 101.234 202.867 101.653 202.732 102.052C202.65 102.304 202.557 102.547 202.451 102.781C202.346 103.016 202.234 103.244 202.117 103.467C202.199 103.66 202.319 103.818 202.478 103.941C202.636 104.059 202.855 104.117 203.137 104.117C203.301 104.117 203.477 104.091 203.664 104.038C203.852 103.985 204.039 103.9 204.227 103.783C204.42 103.66 204.607 103.502 204.789 103.309C204.977 103.115 205.149 102.878 205.308 102.597L205.765 101.788L206.002 101.955L205.545 102.764C205.322 103.156 205.094 103.467 204.859 103.695C204.631 103.918 204.408 104.088 204.191 104.205C203.975 104.322 203.77 104.398 203.576 104.434C203.389 104.463 203.228 104.478 203.093 104.478C202.817 104.478 202.571 104.442 202.354 104.372C202.138 104.296 201.944 104.196 201.774 104.073C201.481 104.542 201.156 104.967 200.799 105.348C200.447 105.729 200.075 106.054 199.683 106.323C199.29 106.593 198.883 106.801 198.461 106.947C198.045 107.094 197.629 107.167 197.213 107.167C196.797 107.167 196.422 107.094 196.088 106.947C195.76 106.795 195.481 106.578 195.253 106.297C195.024 106.016 194.849 105.673 194.726 105.269C194.603 104.858 194.541 104.398 194.541 103.889C194.541 103.566 194.564 103.238 194.611 102.904C194.658 102.564 194.726 102.228 194.813 101.894ZM197.345 106.728C197.685 106.728 198.027 106.651 198.373 106.499C198.725 106.341 199.067 106.118 199.401 105.831C199.741 105.544 200.066 105.198 200.377 104.794C200.693 104.384 200.983 103.93 201.247 103.432C201.177 103.297 201.124 103.159 201.089 103.019C201.06 102.872 201.045 102.723 201.045 102.57C201.045 102.4 201.068 102.233 201.115 102.069C201.162 101.899 201.232 101.744 201.326 101.604C201.426 101.457 201.549 101.325 201.695 101.208C201.848 101.091 202.023 100.997 202.223 100.927C202.311 100.599 202.384 100.259 202.442 99.9072C202.501 99.5498 202.53 99.1982 202.53 98.8525C202.53 98.5713 202.504 98.3047 202.451 98.0527C202.398 97.7949 202.308 97.5723 202.179 97.3848C202.056 97.1973 201.886 97.0479 201.669 96.9365C201.458 96.8252 201.194 96.7695 200.878 96.7695C200.421 96.7695 199.967 96.8926 199.516 97.1387C199.07 97.3789 198.646 97.7217 198.241 98.167C197.843 98.6064 197.479 99.1338 197.151 99.749C196.823 100.364 196.551 101.044 196.334 101.788C196.188 102.286 196.073 102.787 195.991 103.291C195.915 103.789 195.877 104.243 195.877 104.653C195.877 106.036 196.366 106.728 197.345 106.728ZM207.575 100.364C208.032 99.585 208.451 98.9316 208.832 98.4043C209.213 97.877 209.579 97.4551 209.931 97.1387C210.288 96.8223 210.643 96.5967 210.994 96.4619C211.352 96.3271 211.732 96.2598 212.137 96.2598C212.805 96.2598 213.314 96.415 213.666 96.7256C214.023 97.0361 214.202 97.4844 214.202 98.0703C214.202 98.5625 214.079 99.0107 213.833 99.415C213.593 99.8193 213.244 100.171 212.787 100.47C212.641 100.563 212.479 100.651 212.304 100.733C212.134 100.815 211.938 100.897 211.715 100.979C211.492 101.062 211.24 101.146 210.959 101.234C210.678 101.316 210.355 101.401 209.992 101.489V101.524C210.713 101.571 211.264 101.732 211.645 102.008C212.031 102.283 212.225 102.632 212.225 103.054C212.225 103.241 212.192 103.438 212.128 103.643C212.063 103.842 211.99 104.047 211.908 104.258C211.832 104.469 211.762 104.683 211.697 104.899C211.633 105.11 211.601 105.318 211.601 105.523C211.601 105.881 211.715 106.171 211.943 106.394C212.172 106.616 212.509 106.728 212.954 106.728C213.312 106.728 213.666 106.646 214.018 106.481C214.369 106.317 214.724 106.068 215.081 105.734C215.438 105.395 215.802 104.967 216.171 104.451C216.546 103.93 216.936 103.312 217.34 102.597L217.797 101.788L218.034 101.955L217.577 102.764C217.097 103.613 216.651 104.322 216.241 104.891C215.831 105.453 215.427 105.904 215.028 106.244C214.636 106.578 214.24 106.815 213.842 106.956C213.443 107.097 213.016 107.167 212.559 107.167C212.289 107.167 212.031 107.141 211.785 107.088C211.539 107.041 211.322 106.959 211.135 106.842C210.947 106.725 210.798 106.566 210.687 106.367C210.575 106.168 210.52 105.919 210.52 105.62C210.52 105.386 210.549 105.148 210.607 104.908C210.672 104.662 210.739 104.425 210.81 104.196C210.886 103.962 210.953 103.736 211.012 103.52C211.076 103.303 211.108 103.101 211.108 102.913C211.108 102.55 210.962 102.245 210.669 101.999C210.376 101.753 209.922 101.621 209.307 101.604V101.56C209.922 101.39 210.473 101.179 210.959 100.927C211.451 100.675 211.864 100.399 212.198 100.101C212.849 99.5088 213.174 98.8145 213.174 98.0176C213.174 97.0684 212.734 96.5938 211.855 96.5938C211.51 96.5938 211.17 96.6758 210.836 96.8398C210.508 96.998 210.156 97.2822 209.781 97.6924C209.406 98.0967 208.993 98.6445 208.542 99.3359C208.097 100.027 207.584 100.9 207.004 101.955L205.158 107H203.857L209.333 91.9531H210.643L207.575 100.364ZM216.637 104.618C216.637 104.319 216.669 104.023 216.733 103.73C216.798 103.432 216.886 103.153 216.997 102.896C217.108 102.638 217.237 102.409 217.384 102.21C217.53 102.005 217.686 101.844 217.85 101.727L221.559 96.3301C221.623 95.8555 221.734 95.4746 221.893 95.1875C222.051 94.9004 222.241 94.7568 222.464 94.7568C222.64 94.7568 222.786 94.8037 222.903 94.8975C223.021 94.9912 223.079 95.1055 223.079 95.2402C223.079 95.3398 223.056 95.4277 223.009 95.5039C222.962 95.5801 222.88 95.668 222.763 95.7676C222.628 95.8789 222.514 95.9844 222.42 96.084C222.332 96.1836 222.259 96.2832 222.2 96.3828C222.142 96.4824 222.101 96.5879 222.077 96.6992C222.054 96.8105 222.042 96.9307 222.042 97.0596C222.042 97.1885 222.051 97.3232 222.068 97.4639C222.092 97.6045 222.13 97.7832 222.183 98C222.235 98.2168 222.309 98.4863 222.402 98.8086C222.502 99.1309 222.628 99.5381 222.78 100.03C222.933 100.522 223.044 100.991 223.114 101.437C223.19 101.882 223.229 102.315 223.229 102.737C223.229 104.349 222.646 105.57 221.479 106.402C221.134 106.648 220.759 106.839 220.354 106.974C219.956 107.103 219.552 107.167 219.142 107.167C218.755 107.167 218.406 107.108 218.096 106.991C217.785 106.868 217.524 106.698 217.313 106.481C217.097 106.259 216.93 105.992 216.812 105.682C216.695 105.365 216.637 105.011 216.637 104.618ZM221.506 96.9629L218.368 101.542C218.556 101.542 218.705 101.604 218.816 101.727C218.928 101.85 218.983 102.014 218.983 102.219C218.983 102.324 218.969 102.427 218.939 102.526C218.91 102.62 218.869 102.702 218.816 102.772C218.764 102.843 218.702 102.901 218.632 102.948C218.562 102.989 218.488 103.01 218.412 103.01C218.312 103.01 218.228 102.989 218.157 102.948C218.087 102.907 217.999 102.887 217.894 102.887C217.771 102.887 217.656 102.931 217.551 103.019C217.439 103.101 217.346 103.218 217.27 103.37C217.188 103.522 217.126 103.704 217.085 103.915C217.038 104.12 217.015 104.346 217.015 104.592C217.015 104.92 217.062 105.216 217.155 105.479C217.243 105.743 217.375 105.969 217.551 106.156C217.721 106.338 217.926 106.479 218.166 106.578C218.412 106.678 218.69 106.728 219.001 106.728C219.411 106.728 219.792 106.64 220.144 106.464C220.495 106.288 220.803 106.033 221.066 105.699C221.699 104.891 222.016 103.672 222.016 102.043C222.016 101.844 222.01 101.647 221.998 101.454C221.992 101.255 221.978 101.05 221.954 100.839C221.937 100.622 221.91 100.391 221.875 100.145C221.84 99.8984 221.799 99.6201 221.752 99.3096C221.67 98.7881 221.608 98.3516 221.567 98C221.526 97.6484 221.506 97.3643 221.506 97.1475V96.9629ZM240.112 102.737C239.884 103.37 239.714 103.9 239.603 104.328C239.497 104.756 239.444 105.113 239.444 105.4C239.444 105.822 239.541 106.15 239.734 106.385C239.934 106.613 240.218 106.728 240.587 106.728C240.956 106.728 241.334 106.625 241.721 106.42C242.107 106.209 242.482 105.922 242.846 105.559C243.209 105.189 243.549 104.756 243.865 104.258C244.182 103.754 244.457 103.209 244.691 102.623C244.908 102.072 245.081 101.51 245.21 100.936C245.345 100.361 245.412 99.7666 245.412 99.1514C245.412 98.7061 245.383 98.3516 245.324 98.0879C245.271 97.8184 245.21 97.6045 245.14 97.4463C245.069 97.2881 245.005 97.168 244.946 97.0859C244.894 96.998 244.867 96.9131 244.867 96.8311C244.867 96.7256 244.911 96.6318 244.999 96.5498C245.093 96.4678 245.198 96.4268 245.315 96.4268C245.444 96.4268 245.553 96.4795 245.641 96.585C245.734 96.6904 245.811 96.834 245.869 97.0156C245.928 97.1973 245.972 97.4111 246.001 97.6572C246.03 97.9033 246.045 98.1641 246.045 98.4395C246.045 98.8379 246.016 99.2334 245.957 99.626C245.904 100.013 245.831 100.391 245.737 100.76C245.644 101.129 245.535 101.486 245.412 101.832C245.289 102.172 245.163 102.491 245.034 102.79C244.759 103.429 244.442 104.018 244.085 104.557C243.733 105.09 243.353 105.55 242.942 105.937C242.538 106.323 242.116 106.625 241.677 106.842C241.237 107.059 240.795 107.167 240.35 107.167C240.039 107.167 239.761 107.111 239.515 107C239.274 106.895 239.069 106.742 238.899 106.543C238.729 106.344 238.601 106.104 238.513 105.822C238.425 105.541 238.381 105.228 238.381 104.882C238.381 104.8 238.384 104.712 238.39 104.618C238.396 104.524 238.404 104.428 238.416 104.328C238.146 104.762 237.856 105.154 237.546 105.506C237.241 105.852 236.922 106.147 236.588 106.394C236.26 106.64 235.92 106.83 235.568 106.965C235.223 107.1 234.877 107.167 234.531 107.167C234.221 107.167 233.942 107.111 233.696 107C233.456 106.895 233.251 106.742 233.081 106.543C232.911 106.344 232.782 106.104 232.694 105.822C232.606 105.541 232.562 105.228 232.562 104.882C232.562 104.583 232.601 104.252 232.677 103.889C232.747 103.52 232.853 103.136 232.993 102.737L235.226 96.585H236.526L234.294 102.737C234.065 103.37 233.896 103.9 233.784 104.328C233.679 104.756 233.626 105.113 233.626 105.4C233.626 105.822 233.723 106.15 233.916 106.385C234.115 106.613 234.399 106.728 234.769 106.728C235.126 106.728 235.501 106.622 235.894 106.411C236.286 106.2 236.664 105.916 237.027 105.559C237.396 105.195 237.736 104.771 238.047 104.284C238.357 103.798 238.612 103.282 238.812 102.737L241.035 96.585H242.336L240.112 102.737ZM250.431 96.585H251.731L249.49 102.737C249.408 102.966 249.326 103.2 249.244 103.44C249.162 103.675 249.089 103.909 249.024 104.144C248.966 104.372 248.916 104.595 248.875 104.812C248.84 105.022 248.822 105.219 248.822 105.4C248.822 105.805 248.928 106.127 249.139 106.367C249.355 106.607 249.689 106.728 250.141 106.728C250.533 106.728 250.911 106.643 251.274 106.473C251.644 106.303 252.007 106.048 252.364 105.708C252.728 105.362 253.091 104.932 253.454 104.416C253.817 103.895 254.195 103.288 254.588 102.597L255.045 101.788L255.282 101.955L254.825 102.764C254.397 103.52 253.987 104.176 253.595 104.732C253.208 105.283 252.818 105.74 252.426 106.104C252.039 106.461 251.644 106.728 251.239 106.903C250.835 107.079 250.404 107.167 249.947 107.167C249.59 107.167 249.273 107.111 248.998 107C248.729 106.895 248.503 106.742 248.321 106.543C248.134 106.344 247.993 106.104 247.899 105.822C247.806 105.541 247.759 105.228 247.759 104.882C247.759 104.577 247.797 104.243 247.873 103.88C247.943 103.517 248.049 103.136 248.189 102.737L250.431 96.585ZM251.134 94.2822C251.134 94.0771 251.204 93.9014 251.345 93.7549C251.491 93.6084 251.667 93.5352 251.872 93.5352C252.077 93.5352 252.25 93.6084 252.391 93.7549C252.537 93.8955 252.61 94.0684 252.61 94.2734C252.61 94.373 252.59 94.4697 252.549 94.5635C252.514 94.6514 252.461 94.7275 252.391 94.792C252.326 94.8564 252.247 94.9092 252.153 94.9502C252.065 94.9854 251.969 95.0029 251.863 95.0029C251.658 95.0029 251.485 94.9355 251.345 94.8008C251.204 94.6602 251.134 94.4873 251.134 94.2822ZM254.359 96.585H256.926L257.761 94.2822H259.062L258.227 96.585H260.863V96.9365H258.095L255.985 102.737C255.903 102.966 255.821 103.2 255.739 103.44C255.663 103.681 255.593 103.918 255.528 104.152C255.47 104.381 255.42 104.604 255.379 104.82C255.344 105.031 255.326 105.225 255.326 105.4C255.326 105.805 255.435 106.127 255.651 106.367C255.874 106.607 256.208 106.728 256.653 106.728C257.087 106.728 257.509 106.646 257.919 106.481C258.329 106.317 258.733 106.065 259.132 105.726C259.53 105.386 259.926 104.958 260.318 104.442C260.711 103.921 261.106 103.306 261.505 102.597L261.962 101.788L262.199 101.955L261.742 102.764C261.279 103.584 260.831 104.275 260.397 104.838C259.964 105.395 259.533 105.846 259.105 106.191C258.684 106.537 258.253 106.786 257.813 106.938C257.38 107.091 256.929 107.167 256.46 107.167C256.103 107.167 255.786 107.111 255.511 107C255.235 106.895 255.007 106.742 254.825 106.543C254.638 106.344 254.497 106.104 254.403 105.822C254.304 105.541 254.254 105.228 254.254 104.882C254.254 104.577 254.289 104.243 254.359 103.88C254.43 103.517 254.538 103.136 254.685 102.737L256.794 96.9365H254.359V96.585ZM265.53 91.9531H266.84L263.772 100.364C264.171 99.6963 264.549 99.1162 264.906 98.624C265.27 98.126 265.63 97.7158 265.987 97.3936C266.345 97.0654 266.711 96.8223 267.086 96.6641C267.461 96.5 267.862 96.418 268.29 96.418C268.647 96.418 268.961 96.4766 269.23 96.5938C269.506 96.7109 269.734 96.8779 269.916 97.0947C270.104 97.3057 270.244 97.5605 270.338 97.8594C270.432 98.1582 270.479 98.4922 270.479 98.8613C270.479 99.125 270.429 99.4355 270.329 99.793C270.235 100.15 270.115 100.531 269.969 100.936C269.822 101.34 269.664 101.756 269.494 102.184C269.324 102.605 269.166 103.016 269.02 103.414C268.873 103.812 268.75 104.185 268.65 104.53C268.557 104.87 268.51 105.16 268.51 105.4C268.51 105.805 268.615 106.127 268.826 106.367C269.043 106.607 269.377 106.728 269.828 106.728C270.221 106.728 270.599 106.643 270.962 106.473C271.331 106.303 271.694 106.048 272.052 105.708C272.415 105.362 272.778 104.932 273.142 104.416C273.505 103.895 273.883 103.288 274.275 102.597L274.732 101.788L274.97 101.955L274.513 102.764C274.085 103.52 273.675 104.176 273.282 104.732C272.896 105.283 272.506 105.74 272.113 106.104C271.727 106.461 271.331 106.728 270.927 106.903C270.522 107.079 270.092 107.167 269.635 107.167C269.277 107.167 268.961 107.111 268.686 107C268.416 106.895 268.188 106.742 268 106.543C267.818 106.344 267.681 106.104 267.587 105.822C267.493 105.541 267.446 105.228 267.446 104.882C267.446 104.63 267.493 104.328 267.587 103.977C267.687 103.619 267.81 103.235 267.956 102.825C268.103 102.415 268.261 101.996 268.431 101.568C268.601 101.135 268.759 100.719 268.905 100.32C269.052 99.9219 269.172 99.5527 269.266 99.2129C269.365 98.8672 269.415 98.5801 269.415 98.3516C269.415 97.8945 269.307 97.5312 269.09 97.2617C268.879 96.9922 268.548 96.8574 268.097 96.8574C267.698 96.8574 267.314 96.9512 266.945 97.1387C266.576 97.3262 266.195 97.625 265.803 98.0352C265.416 98.4395 265.009 98.9639 264.581 99.6084C264.159 100.253 263.699 101.035 263.201 101.955L261.355 107H260.055L265.53 91.9531ZM284.269 107.167C283.208 107.167 282.391 106.892 281.816 106.341C281.242 105.784 280.955 104.958 280.955 103.862C280.955 103.563 280.979 103.247 281.025 102.913C281.066 102.579 281.134 102.236 281.228 101.885C281.438 101.1 281.734 100.373 282.115 99.7051C282.502 99.0371 282.944 98.46 283.442 97.9736C283.94 97.4873 284.477 97.1064 285.051 96.8311C285.625 96.5557 286.202 96.418 286.782 96.418C287.368 96.418 287.828 96.5557 288.162 96.8311C288.502 97.1064 288.672 97.4932 288.672 97.9912C288.672 98.2725 288.616 98.5479 288.505 98.8174C288.394 99.0869 288.232 99.3418 288.021 99.582C287.811 99.8223 287.556 100.048 287.257 100.259C286.964 100.464 286.633 100.643 286.264 100.795C285.807 100.988 285.303 101.135 284.752 101.234C284.201 101.328 283.574 101.375 282.871 101.375C282.701 101.85 282.566 102.345 282.467 102.86C282.373 103.37 282.326 103.892 282.326 104.425C282.326 105.239 282.496 105.828 282.836 106.191C283.182 106.549 283.724 106.728 284.462 106.728C285.077 106.728 285.663 106.61 286.22 106.376C286.776 106.136 287.292 105.822 287.767 105.436C288.241 105.049 288.675 104.609 289.067 104.117C289.46 103.619 289.803 103.112 290.096 102.597L290.553 101.788L290.79 101.955L290.333 102.764C289.97 103.402 289.571 103.991 289.138 104.53C288.71 105.069 288.241 105.535 287.731 105.928C287.228 106.314 286.686 106.619 286.105 106.842C285.531 107.059 284.919 107.167 284.269 107.167ZM287.028 96.7695C286.659 96.7695 286.281 96.8779 285.895 97.0947C285.514 97.3115 285.145 97.6133 284.787 98C284.43 98.3809 284.096 98.832 283.785 99.3535C283.475 99.875 283.205 100.443 282.977 101.059C283.621 101.047 284.172 100.991 284.629 100.892C285.086 100.786 285.484 100.654 285.824 100.496C286.094 100.373 286.354 100.215 286.606 100.021C286.864 99.8223 287.09 99.5967 287.283 99.3447C287.482 99.0928 287.641 98.8203 287.758 98.5273C287.881 98.2344 287.942 97.9297 287.942 97.6133C287.942 97.4551 287.919 97.3232 287.872 97.2178C287.825 97.1123 287.761 97.0273 287.679 96.9629C287.597 96.8926 287.5 96.8428 287.389 96.8135C287.277 96.7842 287.157 96.7695 287.028 96.7695ZM298.463 107.167C297.994 107.167 297.599 107.105 297.276 106.982C296.954 106.854 296.69 106.672 296.485 106.438C296.28 106.197 296.125 105.907 296.02 105.567C295.914 105.228 295.844 104.847 295.809 104.425C295.592 104.812 295.36 105.172 295.114 105.506C294.874 105.84 294.61 106.13 294.323 106.376C294.042 106.622 293.734 106.815 293.4 106.956C293.072 107.097 292.715 107.167 292.328 107.167C292.088 107.167 291.862 107.135 291.651 107.07C291.446 107.006 291.265 106.915 291.106 106.798C290.954 106.675 290.834 106.528 290.746 106.358C290.658 106.188 290.614 105.998 290.614 105.787C290.614 105.512 290.688 105.295 290.834 105.137C290.98 104.973 291.177 104.891 291.423 104.891C291.628 104.891 291.783 104.946 291.889 105.058C291.994 105.169 292.047 105.318 292.047 105.506C292.047 105.705 291.994 105.866 291.889 105.989C291.783 106.106 291.654 106.165 291.502 106.165C291.438 106.165 291.385 106.156 291.344 106.139C291.303 106.115 291.265 106.104 291.229 106.104C291.171 106.104 291.142 106.142 291.142 106.218C291.142 106.3 291.171 106.379 291.229 106.455C291.288 106.525 291.364 106.59 291.458 106.648C291.552 106.701 291.657 106.745 291.774 106.78C291.897 106.81 292.021 106.824 292.144 106.824C292.501 106.824 292.853 106.713 293.198 106.49C293.544 106.262 293.869 105.954 294.174 105.567C294.479 105.181 294.76 104.735 295.018 104.231C295.275 103.722 295.495 103.183 295.677 102.614C295.864 102.046 296.011 101.469 296.116 100.883C296.222 100.291 296.274 99.7227 296.274 99.1777C296.274 98.8203 296.251 98.4951 296.204 98.2021C296.157 97.9033 296.084 97.6484 295.984 97.4375C295.885 97.2207 295.756 97.0537 295.598 96.9365C295.445 96.8193 295.258 96.7607 295.035 96.7607C294.742 96.7607 294.449 96.8662 294.156 97.0771C293.869 97.2822 293.57 97.5811 293.26 97.9736C292.949 98.3604 292.621 98.835 292.275 99.3975C291.93 99.96 291.555 100.596 291.15 101.305L290.685 102.122L290.456 101.964L290.922 101.138C291.332 100.405 291.707 99.749 292.047 99.1689C292.393 98.583 292.729 98.0879 293.058 97.6836C293.392 97.2734 293.731 96.96 294.077 96.7432C294.423 96.5264 294.807 96.418 295.229 96.418C295.533 96.418 295.8 96.4824 296.028 96.6113C296.263 96.7344 296.456 96.9336 296.608 97.209C296.767 97.4785 296.887 97.8301 296.969 98.2637C297.051 98.6914 297.095 99.207 297.101 99.8105C297.376 99.2949 297.669 98.8291 297.979 98.4131C298.29 97.9971 298.609 97.6426 298.938 97.3496C299.271 97.0508 299.614 96.8223 299.966 96.6641C300.323 96.5 300.684 96.418 301.047 96.418C301.264 96.418 301.478 96.4502 301.688 96.5146C301.899 96.5732 302.084 96.6611 302.242 96.7783C302.406 96.8955 302.538 97.042 302.638 97.2178C302.737 97.3877 302.787 97.5811 302.787 97.7979C302.787 98.0732 302.711 98.293 302.559 98.457C302.412 98.6152 302.216 98.6943 301.97 98.6943C301.771 98.6943 301.615 98.6387 301.504 98.5273C301.398 98.416 301.346 98.2666 301.346 98.0791C301.346 97.8857 301.398 97.7275 301.504 97.6045C301.609 97.4814 301.738 97.4199 301.891 97.4199C301.955 97.4199 302.005 97.4316 302.04 97.4551C302.081 97.4727 302.125 97.4814 302.172 97.4814C302.213 97.4814 302.236 97.4727 302.242 97.4551C302.248 97.4316 302.251 97.3994 302.251 97.3584C302.251 97.2822 302.222 97.209 302.163 97.1387C302.104 97.0625 302.025 96.998 301.926 96.9453C301.832 96.8867 301.724 96.8428 301.601 96.8135C301.483 96.7783 301.36 96.7607 301.231 96.7607C300.892 96.7607 300.549 96.8721 300.203 97.0947C299.863 97.3174 299.535 97.6191 299.219 98C298.908 98.3809 298.615 98.8232 298.34 99.3271C298.064 99.8311 297.824 100.367 297.619 100.936C297.42 101.498 297.262 102.078 297.145 102.676C297.027 103.268 296.969 103.842 296.969 104.398C296.969 104.744 296.998 105.061 297.057 105.348C297.115 105.629 297.215 105.872 297.355 106.077C297.496 106.282 297.681 106.443 297.909 106.561C298.138 106.672 298.422 106.728 298.762 106.728C299.148 106.728 299.541 106.654 299.939 106.508C300.338 106.361 300.742 106.124 301.152 105.796C301.568 105.468 301.99 105.043 302.418 104.521C302.852 103.994 303.294 103.353 303.745 102.597L304.229 101.788L304.448 101.955L303.974 102.764C303.47 103.602 302.995 104.305 302.55 104.873C302.11 105.436 301.671 105.887 301.231 106.227C300.798 106.566 300.355 106.81 299.904 106.956C299.453 107.097 298.973 107.167 298.463 107.167ZM303.543 96.585H306.109L306.944 94.2822H308.245L307.41 96.585H310.047V96.9365H307.278L305.169 102.737C305.087 102.966 305.005 103.2 304.923 103.44C304.847 103.681 304.776 103.918 304.712 104.152C304.653 104.381 304.604 104.604 304.562 104.82C304.527 105.031 304.51 105.225 304.51 105.4C304.51 105.805 304.618 106.127 304.835 106.367C305.058 106.607 305.392 106.728 305.837 106.728C306.271 106.728 306.692 106.646 307.103 106.481C307.513 106.317 307.917 106.065 308.315 105.726C308.714 105.386 309.109 104.958 309.502 104.442C309.895 103.921 310.29 103.306 310.688 102.597L311.146 101.788L311.383 101.955L310.926 102.764C310.463 103.584 310.015 104.275 309.581 104.838C309.147 105.395 308.717 105.846 308.289 106.191C307.867 106.537 307.437 106.786 306.997 106.938C306.563 107.091 306.112 107.167 305.644 107.167C305.286 107.167 304.97 107.111 304.694 107C304.419 106.895 304.19 106.742 304.009 106.543C303.821 106.344 303.681 106.104 303.587 105.822C303.487 105.541 303.438 105.228 303.438 104.882C303.438 104.577 303.473 104.243 303.543 103.88C303.613 103.517 303.722 103.136 303.868 102.737L305.978 96.9365H303.543V96.585ZM317.711 97.209C317.711 97.1152 317.649 97.0215 317.526 96.9277C317.409 96.8281 317.236 96.7783 317.008 96.7783C316.773 96.7783 316.519 96.8516 316.243 96.998C315.968 97.1387 315.654 97.3906 315.303 97.7539C314.951 98.1172 314.556 98.6123 314.116 99.2393C313.683 99.8662 313.19 100.666 312.64 101.639L312.2 102.412L310.539 107H309.229L313.026 96.585H314.327L312.789 100.804C313.27 99.9775 313.709 99.2861 314.107 98.7295C314.506 98.167 314.875 97.7158 315.215 97.376C315.555 97.0303 315.874 96.7842 316.173 96.6377C316.472 96.4912 316.765 96.418 317.052 96.418C317.438 96.418 317.74 96.5322 317.957 96.7607C318.18 96.9893 318.291 97.2881 318.291 97.6572C318.291 97.8096 318.271 97.9561 318.229 98.0967C318.194 98.2314 318.139 98.3486 318.062 98.4482C317.992 98.5479 317.904 98.627 317.799 98.6855C317.693 98.7441 317.576 98.7734 317.447 98.7734C317.354 98.7734 317.26 98.7588 317.166 98.7295C317.078 98.7002 316.999 98.6562 316.929 98.5977C316.858 98.5332 316.8 98.457 316.753 98.3691C316.712 98.2812 316.691 98.1787 316.691 98.0615C316.691 97.9678 316.706 97.874 316.735 97.7803C316.771 97.6807 316.817 97.5957 316.876 97.5254C316.935 97.4492 317.005 97.3877 317.087 97.3408C317.169 97.2939 317.26 97.2705 317.359 97.2705C317.424 97.2705 317.485 97.2764 317.544 97.2881C317.556 97.2998 317.57 97.3115 317.588 97.3232C317.611 97.3291 317.629 97.332 317.641 97.332C317.688 97.332 317.711 97.291 317.711 97.209ZM319.302 101.867C319.513 101.234 319.765 100.66 320.058 100.145C320.351 99.623 320.667 99.1602 321.007 98.7559C321.353 98.3516 321.713 98.0029 322.088 97.71C322.469 97.417 322.847 97.1768 323.222 96.9893C323.603 96.7959 323.975 96.6523 324.338 96.5586C324.707 96.4648 325.053 96.418 325.375 96.418C325.709 96.418 325.987 96.4707 326.21 96.5762C326.433 96.6758 326.611 96.8193 326.746 97.0068C326.887 97.1885 326.986 97.4111 327.045 97.6748C327.104 97.9326 327.133 98.2197 327.133 98.5361L327.845 96.585H329.146L326.904 102.737C326.822 102.966 326.74 103.2 326.658 103.44C326.576 103.675 326.503 103.909 326.438 104.144C326.38 104.372 326.33 104.595 326.289 104.812C326.254 105.022 326.236 105.219 326.236 105.4C326.236 105.805 326.342 106.127 326.553 106.367C326.77 106.607 327.104 106.728 327.555 106.728C327.947 106.728 328.328 106.646 328.697 106.481C329.066 106.312 329.43 106.057 329.787 105.717C330.15 105.371 330.514 104.94 330.877 104.425C331.24 103.903 331.615 103.294 332.002 102.597L332.45 101.788L332.688 101.955L332.23 102.764C331.803 103.525 331.393 104.185 331 104.741C330.613 105.292 330.227 105.749 329.84 106.112C329.453 106.47 329.058 106.736 328.653 106.912C328.249 107.082 327.818 107.167 327.361 107.167C327.004 107.167 326.688 107.111 326.412 107C326.143 106.895 325.914 106.742 325.727 106.543C325.545 106.344 325.407 106.104 325.313 105.822C325.22 105.541 325.173 105.228 325.173 104.882C325.173 104.653 325.193 104.407 325.234 104.144C325.275 103.874 325.337 103.596 325.419 103.309C324.651 104.598 323.893 105.564 323.143 106.209C322.393 106.848 321.631 107.167 320.857 107.167C320.494 107.167 320.184 107.103 319.926 106.974C319.674 106.839 319.466 106.654 319.302 106.42C319.138 106.18 319.018 105.901 318.941 105.585C318.865 105.263 318.827 104.911 318.827 104.53C318.827 104.12 318.868 103.689 318.95 103.238C319.032 102.781 319.149 102.324 319.302 101.867ZM321.174 106.728C321.49 106.728 321.812 106.646 322.141 106.481C322.469 106.312 322.794 106.083 323.116 105.796C323.444 105.503 323.761 105.163 324.065 104.776C324.37 104.384 324.657 103.968 324.927 103.528C325.202 103.083 325.454 102.626 325.683 102.157C325.911 101.688 326.107 101.229 326.271 100.777C326.441 100.32 326.57 99.8867 326.658 99.4766C326.752 99.0605 326.799 98.6885 326.799 98.3604C326.799 98.0615 326.761 97.8125 326.685 97.6133C326.614 97.4082 326.518 97.2441 326.395 97.1211C326.277 96.9922 326.14 96.9014 325.981 96.8486C325.829 96.7959 325.671 96.7695 325.507 96.7695C325.179 96.7695 324.812 96.8721 324.408 97.0771C324.01 97.2764 323.603 97.584 323.187 98C322.771 98.4102 322.36 98.9316 321.956 99.5645C321.558 100.191 321.191 100.93 320.857 101.779C320.582 102.488 320.374 103.145 320.233 103.748C320.099 104.352 320.031 104.855 320.031 105.26C320.031 105.717 320.122 106.077 320.304 106.341C320.491 106.599 320.781 106.728 321.174 106.728ZM337.803 104.618C337.803 104.319 337.835 104.023 337.899 103.73C337.964 103.432 338.052 103.153 338.163 102.896C338.274 102.638 338.403 102.409 338.55 102.21C338.696 102.005 338.852 101.844 339.016 101.727L342.725 96.3301C342.789 95.8555 342.9 95.4746 343.059 95.1875C343.217 94.9004 343.407 94.7568 343.63 94.7568C343.806 94.7568 343.952 94.8037 344.069 94.8975C344.187 94.9912 344.245 95.1055 344.245 95.2402C344.245 95.3398 344.222 95.4277 344.175 95.5039C344.128 95.5801 344.046 95.668 343.929 95.7676C343.794 95.8789 343.68 95.9844 343.586 96.084C343.498 96.1836 343.425 96.2832 343.366 96.3828C343.308 96.4824 343.267 96.5879 343.243 96.6992C343.22 96.8105 343.208 96.9307 343.208 97.0596C343.208 97.1885 343.217 97.3232 343.234 97.4639C343.258 97.6045 343.296 97.7832 343.349 98C343.401 98.2168 343.475 98.4863 343.568 98.8086C343.668 99.1309 343.794 99.5381 343.946 100.03C344.099 100.522 344.21 100.991 344.28 101.437C344.356 101.882 344.395 102.315 344.395 102.737C344.395 104.349 343.812 105.57 342.646 106.402C342.3 106.648 341.925 106.839 341.521 106.974C341.122 107.103 340.718 107.167 340.308 107.167C339.921 107.167 339.572 107.108 339.262 106.991C338.951 106.868 338.69 106.698 338.479 106.481C338.263 106.259 338.096 105.992 337.979 105.682C337.861 105.365 337.803 105.011 337.803 104.618ZM342.672 96.9629L339.534 101.542C339.722 101.542 339.871 101.604 339.982 101.727C340.094 101.85 340.149 102.014 340.149 102.219C340.149 102.324 340.135 102.427 340.105 102.526C340.076 102.62 340.035 102.702 339.982 102.772C339.93 102.843 339.868 102.901 339.798 102.948C339.728 102.989 339.654 103.01 339.578 103.01C339.479 103.01 339.394 102.989 339.323 102.948C339.253 102.907 339.165 102.887 339.06 102.887C338.937 102.887 338.822 102.931 338.717 103.019C338.605 103.101 338.512 103.218 338.436 103.37C338.354 103.522 338.292 103.704 338.251 103.915C338.204 104.12 338.181 104.346 338.181 104.592C338.181 104.92 338.228 105.216 338.321 105.479C338.409 105.743 338.541 105.969 338.717 106.156C338.887 106.338 339.092 106.479 339.332 106.578C339.578 106.678 339.856 106.728 340.167 106.728C340.577 106.728 340.958 106.64 341.31 106.464C341.661 106.288 341.969 106.033 342.232 105.699C342.865 104.891 343.182 103.672 343.182 102.043C343.182 101.844 343.176 101.647 343.164 101.454C343.158 101.255 343.144 101.05 343.12 100.839C343.103 100.622 343.076 100.391 343.041 100.145C343.006 99.8984 342.965 99.6201 342.918 99.3096C342.836 98.7881 342.774 98.3516 342.733 98C342.692 97.6484 342.672 97.3643 342.672 97.1475V96.9629ZM347.295 96.585H349.861L350.696 94.2822H351.997L351.162 96.585H353.799V96.9365H351.03L348.921 102.737C348.839 102.966 348.757 103.2 348.675 103.44C348.599 103.681 348.528 103.918 348.464 104.152C348.405 104.381 348.355 104.604 348.314 104.82C348.279 105.031 348.262 105.225 348.262 105.4C348.262 105.805 348.37 106.127 348.587 106.367C348.81 106.607 349.144 106.728 349.589 106.728C350.022 106.728 350.444 106.646 350.854 106.481C351.265 106.317 351.669 106.065 352.067 105.726C352.466 105.386 352.861 104.958 353.254 104.442C353.646 103.921 354.042 103.306 354.44 102.597L354.897 101.788L355.135 101.955L354.678 102.764C354.215 103.584 353.767 104.275 353.333 104.838C352.899 105.395 352.469 105.846 352.041 106.191C351.619 106.537 351.188 106.786 350.749 106.938C350.315 107.091 349.864 107.167 349.396 107.167C349.038 107.167 348.722 107.111 348.446 107C348.171 106.895 347.942 106.742 347.761 106.543C347.573 106.344 347.433 106.104 347.339 105.822C347.239 105.541 347.189 105.228 347.189 104.882C347.189 104.577 347.225 104.243 347.295 103.88C347.365 103.517 347.474 103.136 347.62 102.737L349.729 96.9365H347.295V96.585ZM357.903 107.167C356.843 107.167 356.025 106.892 355.451 106.341C354.877 105.784 354.59 104.958 354.59 103.862C354.59 103.563 354.613 103.247 354.66 102.913C354.701 102.579 354.769 102.236 354.862 101.885C355.073 101.1 355.369 100.373 355.75 99.7051C356.137 99.0371 356.579 98.46 357.077 97.9736C357.575 97.4873 358.111 97.1064 358.686 96.8311C359.26 96.5557 359.837 96.418 360.417 96.418C361.003 96.418 361.463 96.5557 361.797 96.8311C362.137 97.1064 362.307 97.4932 362.307 97.9912C362.307 98.2725 362.251 98.5479 362.14 98.8174C362.028 99.0869 361.867 99.3418 361.656 99.582C361.445 99.8223 361.19 100.048 360.892 100.259C360.599 100.464 360.268 100.643 359.898 100.795C359.441 100.988 358.938 101.135 358.387 101.234C357.836 101.328 357.209 101.375 356.506 101.375C356.336 101.85 356.201 102.345 356.102 102.86C356.008 103.37 355.961 103.892 355.961 104.425C355.961 105.239 356.131 105.828 356.471 106.191C356.816 106.549 357.358 106.728 358.097 106.728C358.712 106.728 359.298 106.61 359.854 106.376C360.411 106.136 360.927 105.822 361.401 105.436C361.876 105.049 362.31 104.609 362.702 104.117C363.095 103.619 363.438 103.112 363.73 102.597L364.188 101.788L364.425 101.955L363.968 102.764C363.604 103.402 363.206 103.991 362.772 104.53C362.345 105.069 361.876 105.535 361.366 105.928C360.862 106.314 360.32 106.619 359.74 106.842C359.166 107.059 358.554 107.167 357.903 107.167ZM360.663 96.7695C360.294 96.7695 359.916 96.8779 359.529 97.0947C359.148 97.3115 358.779 97.6133 358.422 98C358.064 98.3809 357.73 98.832 357.42 99.3535C357.109 99.875 356.84 100.443 356.611 101.059C357.256 101.047 357.807 100.991 358.264 100.892C358.721 100.786 359.119 100.654 359.459 100.496C359.729 100.373 359.989 100.215 360.241 100.021C360.499 99.8223 360.725 99.5967 360.918 99.3447C361.117 99.0928 361.275 98.8203 361.393 98.5273C361.516 98.2344 361.577 97.9297 361.577 97.6133C361.577 97.4551 361.554 97.3232 361.507 97.2178C361.46 97.1123 361.396 97.0273 361.313 96.9629C361.231 96.8926 361.135 96.8428 361.023 96.8135C360.912 96.7842 360.792 96.7695 360.663 96.7695ZM366.2 96.2949H367.501L366.086 100.171C366.836 98.917 367.58 97.9795 368.318 97.3584C369.062 96.7314 369.818 96.418 370.586 96.418C370.943 96.418 371.251 96.4854 371.509 96.6201C371.767 96.7549 371.978 96.9395 372.142 97.1738C372.306 97.4082 372.426 97.6865 372.502 98.0088C372.578 98.3252 372.616 98.668 372.616 99.0371C372.616 99.4297 372.575 99.8604 372.493 100.329C372.417 100.792 372.303 101.255 372.15 101.718C371.852 102.632 371.462 103.429 370.981 104.108C370.507 104.788 369.985 105.356 369.417 105.813C368.854 106.265 368.271 106.604 367.668 106.833C367.064 107.056 366.487 107.167 365.937 107.167C365.638 107.167 365.38 107.132 365.163 107.062C364.952 106.991 364.779 106.88 364.645 106.728C364.51 106.575 364.407 106.379 364.337 106.139C364.267 105.898 364.229 105.611 364.223 105.277L361.911 111.632H360.61L366.2 96.2949ZM370.287 96.8574C369.977 96.8574 369.654 96.9482 369.32 97.1299C368.992 97.3057 368.664 97.5459 368.336 97.8506C368.008 98.1553 367.686 98.5098 367.369 98.9141C367.059 99.3184 366.763 99.749 366.481 100.206C366.2 100.663 365.939 101.132 365.699 101.612C365.465 102.093 365.263 102.562 365.093 103.019C364.923 103.47 364.788 103.897 364.688 104.302C364.595 104.706 364.548 105.058 364.548 105.356C364.548 105.562 364.571 105.755 364.618 105.937C364.665 106.112 364.738 106.268 364.838 106.402C364.943 106.531 365.072 106.634 365.225 106.71C365.383 106.78 365.57 106.815 365.787 106.815C366.068 106.815 366.405 106.739 366.798 106.587C367.196 106.429 367.612 106.159 368.046 105.778C368.485 105.397 368.925 104.885 369.364 104.24C369.81 103.596 370.22 102.784 370.595 101.806C370.724 101.472 370.838 101.141 370.938 100.812C371.037 100.484 371.122 100.171 371.192 99.8721C371.263 99.5674 371.315 99.2832 371.351 99.0195C371.392 98.7559 371.412 98.5215 371.412 98.3164C371.412 97.8652 371.321 97.5107 371.14 97.2529C370.958 96.9893 370.674 96.8574 370.287 96.8574ZM373.908 104.618C373.908 104.319 373.94 104.023 374.005 103.73C374.069 103.432 374.157 103.153 374.269 102.896C374.38 102.638 374.509 102.409 374.655 102.21C374.802 102.005 374.957 101.844 375.121 101.727L378.83 96.3301C378.895 95.8555 379.006 95.4746 379.164 95.1875C379.322 94.9004 379.513 94.7568 379.735 94.7568C379.911 94.7568 380.058 94.8037 380.175 94.8975C380.292 94.9912 380.351 95.1055 380.351 95.2402C380.351 95.3398 380.327 95.4277 380.28 95.5039C380.233 95.5801 380.151 95.668 380.034 95.7676C379.899 95.8789 379.785 95.9844 379.691 96.084C379.604 96.1836 379.53 96.2832 379.472 96.3828C379.413 96.4824 379.372 96.5879 379.349 96.6992C379.325 96.8105 379.313 96.9307 379.313 97.0596C379.313 97.1885 379.322 97.3232 379.34 97.4639C379.363 97.6045 379.401 97.7832 379.454 98C379.507 98.2168 379.58 98.4863 379.674 98.8086C379.773 99.1309 379.899 99.5381 380.052 100.03C380.204 100.522 380.315 100.991 380.386 101.437C380.462 101.882 380.5 102.315 380.5 102.737C380.5 104.349 379.917 105.57 378.751 106.402C378.405 106.648 378.03 106.839 377.626 106.974C377.228 107.103 376.823 107.167 376.413 107.167C376.026 107.167 375.678 107.108 375.367 106.991C375.057 106.868 374.796 106.698 374.585 106.481C374.368 106.259 374.201 105.992 374.084 105.682C373.967 105.365 373.908 105.011 373.908 104.618ZM378.777 96.9629L375.64 101.542C375.827 101.542 375.977 101.604 376.088 101.727C376.199 101.85 376.255 102.014 376.255 102.219C376.255 102.324 376.24 102.427 376.211 102.526C376.182 102.62 376.141 102.702 376.088 102.772C376.035 102.843 375.974 102.901 375.903 102.948C375.833 102.989 375.76 103.01 375.684 103.01C375.584 103.01 375.499 102.989 375.429 102.948C375.358 102.907 375.271 102.887 375.165 102.887C375.042 102.887 374.928 102.931 374.822 103.019C374.711 103.101 374.617 103.218 374.541 103.37C374.459 103.522 374.397 103.704 374.356 103.915C374.31 104.12 374.286 104.346 374.286 104.592C374.286 104.92 374.333 105.216 374.427 105.479C374.515 105.743 374.646 105.969 374.822 106.156C374.992 106.338 375.197 106.479 375.438 106.578C375.684 106.678 375.962 106.728 376.272 106.728C376.683 106.728 377.063 106.64 377.415 106.464C377.767 106.288 378.074 106.033 378.338 105.699C378.971 104.891 379.287 103.672 379.287 102.043C379.287 101.844 379.281 101.647 379.27 101.454C379.264 101.255 379.249 101.05 379.226 100.839C379.208 100.622 379.182 100.391 379.146 100.145C379.111 99.8984 379.07 99.6201 379.023 99.3096C378.941 98.7881 378.88 98.3516 378.839 98C378.798 97.6484 378.777 97.3643 378.777 97.1475V96.9629Z" fill="#414141"/>
</svg>
