<?xml version="1.0" encoding="UTF-8" standalone="no"?>
<!DOCTYPE svg PUBLIC "-//W3C//DTD SVG 1.1//EN" "http://www.w3.org/Graphics/SVG/1.1/DTD/svg11.dtd">
<svg width="100%" height="100%" viewBox="0 0 244 346" version="1.1" xmlns="http://www.w3.org/2000/svg" xmlns:xlink="http://www.w3.org/1999/xlink" xml:space="preserve" xmlns:serif="http://www.serif.com/" style="fill-rule:evenodd;clip-rule:evenodd;stroke-linejoin:round;stroke-miterlimit:1.41421;">
    <g transform="matrix(1,0,0,1,-530.368,-214.69)">
        <path d="M773.606,214.69L773.606,560.092L530.368,560.092L530.368,214.69L773.606,214.69ZM694.546,332.912L709.916,317.542C711.89,315.568 715.095,315.568 717.068,317.542L721.836,322.31C723.81,324.283 723.81,327.488 721.836,329.462L706.197,345.101C714.525,356.322 719.452,370.213 719.452,385.247C719.452,422.482 689.222,452.713 651.987,452.713C636.953,452.713 623.062,447.785 611.841,439.457L594.057,457.241C592.084,459.214 588.879,459.214 586.905,457.241L582.137,452.473C580.164,450.499 580.164,447.294 582.137,445.321L599.652,427.806C590.194,416.193 584.521,401.377 584.521,385.247C584.521,348.012 614.752,317.781 651.987,317.781C668.117,317.781 682.933,323.454 694.546,332.912ZM694.098,357.2L623.94,427.358C631.97,432.719 641.616,435.846 651.987,435.846C679.913,435.846 702.586,413.173 702.586,385.247C702.586,374.876 699.459,365.23 694.098,357.2ZM682.538,344.92C674.046,338.474 663.46,334.648 651.987,334.648C624.06,334.648 601.388,357.32 601.388,385.247C601.388,396.72 605.214,407.306 611.66,415.798L682.538,344.92Z" style="fill:rgb(196,196,196);"/>
    </g>
</svg>
